<?xml version="1.0" encoding="UTF-8" standalone="no"?>
<!-- Created with Inkscape (http://www.inkscape.org/) -->

<svg
   xmlns:dc="http://purl.org/dc/elements/1.1/"
   xmlns:cc="http://creativecommons.org/ns#"
   xmlns:rdf="http://www.w3.org/1999/02/22-rdf-syntax-ns#"
   xmlns:svg="http://www.w3.org/2000/svg"
   xmlns="http://www.w3.org/2000/svg"
   xmlns:sodipodi="http://sodipodi.sourceforge.net/DTD/sodipodi-0.dtd"
   xmlns:inkscape="http://www.inkscape.org/namespaces/inkscape"
   width="76.448845mm"
   height="7.444387mm"
   viewBox="0 0 76.448845 7.444387"
   version="1.1"
   id="svg4963"
   inkscape:version="0.92.1 r15371"
   sodipodi:docname="logo.svg">
  <defs
     id="defs4957" />
  <sodipodi:namedview
     id="base"
     pagecolor="#ffffff"
     bordercolor="#666666"
     borderopacity="1.0"
     inkscape:pageopacity="0.0"
     inkscape:pageshadow="2"
     inkscape:zoom="1.979899"
     inkscape:cx="149.87308"
     inkscape:cy="-22.079795"
     inkscape:document-units="mm"
     inkscape:current-layer="layer1"
     showgrid="false"
     fit-margin-top="0"
     fit-margin-left="0"
     fit-margin-right="0"
     fit-margin-bottom="0"
     inkscape:window-width="1600"
     inkscape:window-height="840"
     inkscape:window-x="0"
     inkscape:window-y="0"
     inkscape:window-maximized="1" />
  <metadata
     id="metadata4960">
    <rdf:RDF>
      <cc:Work
         rdf:about="">
        <dc:format>image/svg+xml</dc:format>
        <dc:type
           rdf:resource="http://purl.org/dc/dcmitype/StillImage" />
        <dc:title></dc:title>
      </cc:Work>
    </rdf:RDF>
  </metadata>
  <g
     inkscape:label="Vrstva 1"
     inkscape:groupmode="layer"
     id="layer1"
     transform="translate(-112.96606,-92.194473)">
    <g
       id="g224"
       transform="matrix(0.35277777,0,0,-0.35277777,127.24879,92.194473)">
      <path
         d="M 0,0 H 24.952 V -5.101 H 9.69 v -2.824 h 12.459 v -5.128 H 9.69 v -7.752 H 0 Z"
         style="fill:#ed2d21;fill-opacity:1;fill-rule:nonzero;stroke:none"
         id="path226"
         inkscape:connector-curvature="0" />
    </g>
    <g
       id="g228"
       transform="matrix(0.35277777,0,0,-0.35277777,136.71057,92.194473)">
      <path
         d="M 0,0 H 26.475 V -5.101 H 9.69 v -2.478 h 13.601 v -5.129 H 9.69 v -2.738 h 17.615 v -5.359 H 0 Z"
         style="fill:#ed2d21;fill-opacity:1;fill-rule:nonzero;stroke:none"
         id="path230"
         inkscape:connector-curvature="0" />
    </g>
    <g
       id="g232"
       transform="matrix(0.35277777,0,0,-0.35277777,152.2886,95.366015)">
      <path
         d="M 0,0 C 1.338,0 2.342,0.13 3.011,0.389 3.68,0.648 4.015,1.153 4.015,1.902 4.015,2.688 3.656,3.188 2.942,3.4 2.227,3.611 1.165,3.717 -0.242,3.717 H -5.641 V 0 Z M 8.583,8.76 C 9.943,8.606 11.028,8.327 11.835,7.925 12.782,7.464 13.497,6.848 13.981,6.08 14.466,5.312 14.708,4.419 14.708,3.4 14.708,2.171 14.35,1.09 13.636,0.158 12.92,-0.772 11.905,-1.45 10.59,-1.873 c 0.669,-0.231 1.2,-0.48 1.592,-0.749 0.392,-0.27 0.697,-0.576 0.917,-0.922 0.219,-0.346 0.363,-0.745 0.433,-1.196 0.069,-0.451 0.126,-0.976 0.173,-1.572 0.046,-0.749 0.086,-1.417 0.121,-2.001 0.034,-0.585 0.091,-1.095 0.173,-1.528 0.081,-0.432 0.202,-0.788 0.363,-1.065 0.161,-0.28 0.392,-0.477 0.692,-0.591 v -0.317 H 4.292 c -0.186,0.25 -0.312,0.528 -0.381,0.835 -0.07,0.307 -0.116,0.644 -0.138,1.008 -0.024,0.366 -0.035,0.749 -0.035,1.154 0,0.403 -0.035,0.826 -0.104,1.267 -0.115,0.787 -0.427,1.33 -0.934,1.629 -0.509,0.298 -1.362,0.446 -2.561,0.446 h -5.78 v -6.339 h -9.828 V 8.99 H 3.564 c 1.984,0 3.657,-0.076 5.019,-0.23"
         style="fill:#ed2d21;fill-opacity:1;fill-rule:nonzero;stroke:none"
         id="path234"
         inkscape:connector-curvature="0" />
    </g>
    <g
       id="g236"
       transform="matrix(0.35277777,0,0,-0.35277777,164.27754,97.704225)">
      <path
         d="m 0,0 c 0.623,0 1.171,0.015 1.644,0.044 0.473,0.028 0.865,0.101 1.176,0.216 0.312,0.115 0.548,0.288 0.71,0.519 0.161,0.23 0.242,0.537 0.242,0.922 0,0.768 -0.3,1.248 -0.899,1.441 C 2.272,3.333 1.315,3.43 0,3.43 H -6.853 V 0 Z m -6.853,7.81 h 6.507 c 0.576,0 1.078,0.013 1.505,0.044 0.427,0.028 0.779,0.09 1.055,0.185 0.278,0.096 0.479,0.245 0.606,0.447 0.127,0.202 0.191,0.465 0.191,0.792 0,0.346 -0.07,0.62 -0.208,0.823 C 2.665,10.302 2.457,10.451 2.18,10.547 1.903,10.643 1.558,10.7 1.142,10.72 0.727,10.738 0.23,10.749 -0.346,10.749 h -6.507 z m 14.657,7.563 c 1.211,-0.163 2.209,-0.446 2.993,-0.85 0.785,-0.403 1.373,-0.936 1.766,-1.598 0.391,-0.663 0.587,-1.494 0.587,-2.493 0,-2.076 -1.107,-3.593 -3.321,-4.554 2.906,-0.786 4.36,-2.496 4.36,-5.129 0,-3.957 -3.115,-5.936 -9.344,-5.936 H -16.542 V 15.618 H 3.564 c 1.615,0 3.028,-0.082 4.24,-0.245"
         style="fill:#a2a2a1;fill-opacity:1;fill-rule:nonzero;stroke:none"
         id="path238"
         inkscape:connector-curvature="0" />
    </g>
    <g
       id="g240"
       transform="matrix(0.35277777,0,0,-0.35277777,169.69805,92.194473)">
      <path
         d="M 0,0 H 26.474 V -5.101 H 9.69 v -2.478 h 13.601 v -5.129 H 9.69 v -2.738 h 17.615 v -5.359 H 0 Z"
         style="fill:#a2a2a1;fill-opacity:1;fill-rule:nonzero;stroke:none"
         id="path242"
         inkscape:connector-curvature="0" />
    </g>
    <g
       id="g244"
       transform="matrix(0.35277777,0,0,-0.35277777,182.79785,94.054811)">
      <path
         d="M 0,0 H -9.032 V 5.273 H 18.757 V 0 H 9.689 V -15.531 H 0 Z"
         style="fill:#a2a2a1;fill-opacity:1;fill-rule:nonzero;stroke:none"
         id="path246"
         inkscape:connector-curvature="0" />
    </g>
    <g
       id="g248"
       transform="matrix(0.35277777,0,0,-0.35277777,115.372,93.886007)">
      <path
         d="M 0,0 H 11.654 V 4.141 H 0 c -3.76,0 -6.82,-3.159 -6.82,-7.039 v -6.369 c 0,-2.851 1.653,-5.306 4.019,-6.412 v 6.268 c -0.002,0.048 -0.007,0.096 -0.007,0.144 v 1.113 h 7.984 v 4.141 h -7.984 v 1.115 C -2.808,-1.302 -1.548,0 0,0"
         style="fill:#ed2d21;fill-opacity:1;fill-rule:nonzero;stroke:none"
         id="path250"
         inkscape:connector-curvature="0" />
    </g>
    <g
       id="g252"
       transform="matrix(0.35277777,0,0,-0.35277777,124.53406,95.454563)">
      <path
         d="m 0,0 v 1.548 c 0,3.881 -3.059,7.039 -6.82,7.039 h -5.09 V 4.446 h 5.09 c 1.549,0 2.808,-1.301 2.808,-2.898 V 0.434 H -18.388 V -3.708 H -4.012 V -4.82 c 0,-1.599 -1.259,-2.901 -2.808,-2.901 h -19.151 c -0.019,0 -0.038,0.003 -0.057,0.003 h -0.337 v -4.143 h 0.394 19.151 c 3.761,0 6.82,3.158 6.82,7.041 v 1.553 c -0.063,1.443 -0.681,1.65 -0.681,1.65 0,0 0.618,-0.007 0.681,1.617"
         style="fill:#a2a2a1;fill-opacity:1;fill-rule:nonzero;stroke:none"
         id="path254"
         inkscape:connector-curvature="0" />
    </g>
  </g>
</svg>
